<svg height="474pt" preserveAspectRatio="xMidYMid meet" viewBox="0 0 770 474" width="770pt" xmlns="http://www.w3.org/2000/svg"><g transform="matrix(.1 0 0 -.1 0 474)"><path d="m6817 4706c-21-8-47-22-57-31-43-39-62-122-41-177 5-13 113-158 241-323l231-300-3525-5-3525-5-28-21c-15-11-37-38-47-60-11-21-23-47-28-57-4-9-4-25 0-35 5-9 17-35 28-57s34-48 54-60l35-20 3518-5 3518-5-232-300c-127-165-235-310-240-323-26-69 3-153 66-190 47-27 126-26 168 1 25 16 677 853 710 911 22 39 22 92-1 133-15 30-559 739-656 857-38 46-102 86-136 85-8 0-32-6-53-13z"/><path d="m804 2041c-35-16-88-80-354-427-172-225-328-421-345-436-18-15-38-42-44-60-7-18-17-41-22-51-6-11-7-23-1-30 5-7 12-25 16-41 4-15 29-51 55-80 26-28 184-228 350-444 185-239 314-398 331-407 16-8 51-15 77-15 90 0 153 63 153 153 0 26-6 60-14 75s-114 155-235 312c-122 157-221 288-221 293 0 4 398 7 885 7s885-3 885-7c0-3-90-140-200-304s-200-300-200-303 875-6 1946-6h1945l-205 304c-114 168-206 307-206 310s483 6 1073 6h1073l44 22c105 54 114 199 17 272l-28 21-1075 3c-591 1-1074 6-1074 10s87 138 194 297l193 290-1950 3c-1073 1-1952 0-1955-3-3-2 81-132 185-287 104-156 193-289 197-295 6-10-171-13-868-13-482 0-876 3-876 8 0 4 93 126 206 272 261 335 264 340 264 405 0 115-115 193-216 146zm4036-394c79-22 206-72 257-100l22-12-45-90c-26-50-62-118-80-152l-34-62-93 44c-186 88-337 97-337 20 0-37 40-60 183-105 306-96 403-178 428-361 26-182-49-330-206-409-160-80-392-78-650 7-78 25-195 78-195 88 0 5 149 307 155 313 1 1 49-20 106-48 176-85 350-114 386-64 17 23 17 27-7 57-15 19-57 37-177 77-311 102-391 174-401 366-7 146 33 251 128 337 133 119 342 154 560 94zm-1666-269c72-158 134-284 138-280s65 133 136 287l129 280 196 3 197 2v-645-645h-180-180l-2 316-3 316-95-213-96-214-104-3-105-2-95 211-95 211-3-311-2-311h-185-185v645 645l202-2 202-3z"/></g></svg>